<?xml version="1.0" encoding="UTF-8" standalone="no"?><svg xmlns="http://www.w3.org/2000/svg" xmlns:xlink="http://www.w3.org/1999/xlink" contentScriptType="application/ecmascript" contentStyleType="text/css" height="602px" preserveAspectRatio="none" style="width:240px;height:602px;" version="1.1" viewBox="0 0 240 602" width="240px" zoomAndPan="magnify"><defs><filter height="300%" id="fjmndxi18exft" width="300%" x="-1" y="-1"><feGaussianBlur result="blurOut" stdDeviation="2.0"/><feColorMatrix in="blurOut" result="blurOut2" type="matrix" values="0 0 0 0 0 0 0 0 0 0 0 0 0 0 0 0 0 0 .4 0"/><feOffset dx="4.0" dy="4.0" in="blurOut2" result="blurOut3"/><feBlend in="SourceGraphic" in2="blurOut3" mode="normal"/></filter></defs><g><rect fill="#FEFECE" filter="url(#fjmndxi18exft)" height="39.1201" rx="12.5" ry="12.5" style="stroke: #A80036; stroke-width: 1.5;" width="50" x="10" y="286.0405"/><text fill="#000000" font-family="sans-serif" font-size="14" lengthAdjust="spacingAndGlyphs" textLength="30" x="20" y="312.0845">Root</text><rect fill="#FEFECE" filter="url(#fjmndxi18exft)" height="39.1201" rx="12.5" ry="12.5" style="stroke: #A80036; stroke-width: 1.5;" width="83" x="110" y="20"/><text fill="#000000" font-family="sans-serif" font-size="14" lengthAdjust="spacingAndGlyphs" textLength="63" x="120" y="46.0439">index.html</text><path d="M60,305.6006 L70,305.6006 C85,305.6006 85,39.5601 100,39.5601 L110,39.5601 " fill="none" style="stroke: #A80036; stroke-width: 1.0;"/><rect fill="#FEFECE" filter="url(#fjmndxi18exft)" height="39.1201" rx="12.5" ry="12.5" style="stroke: #A80036; stroke-width: 1.5;" width="91" x="110" y="79.1201"/><text fill="#000000" font-family="sans-serif" font-size="14" lengthAdjust="spacingAndGlyphs" textLength="71" x="120" y="105.1641">_config.yml</text><path d="M60,305.6006 L70,305.6006 C85,305.6006 85,98.6802 100,98.6802 L110,98.6802 " fill="none" style="stroke: #A80036; stroke-width: 1.0;"/><rect fill="#FEFECE" filter="url(#fjmndxi18exft)" height="39.1201" rx="12.5" ry="12.5" style="stroke: #A80036; stroke-width: 1.5;" width="62" x="110" y="138.2402"/><text fill="#000000" font-family="sans-serif" font-size="14" lengthAdjust="spacingAndGlyphs" textLength="42" x="120" y="164.2842">_posts</text><path d="M60,305.6006 L70,305.6006 C85,305.6006 85,157.8003 100,157.8003 L110,157.8003 " fill="none" style="stroke: #A80036; stroke-width: 1.0;"/><rect fill="#FEFECE" filter="url(#fjmndxi18exft)" height="39.1201" rx="12.5" ry="12.5" style="stroke: #A80036; stroke-width: 1.5;" width="64" x="110" y="197.3604"/><text fill="#000000" font-family="sans-serif" font-size="14" lengthAdjust="spacingAndGlyphs" textLength="44" x="120" y="223.4043">_drafts</text><path d="M60,305.6006 L70,305.6006 C85,305.6006 85,216.9204 100,216.9204 L110,216.9204 " fill="none" style="stroke: #A80036; stroke-width: 1.0;"/><rect fill="#FEFECE" filter="url(#fjmndxi18exft)" height="39.1201" rx="12.5" ry="12.5" style="stroke: #A80036; stroke-width: 1.5;" width="56" x="110" y="256.4805"/><text fill="#000000" font-family="sans-serif" font-size="14" lengthAdjust="spacingAndGlyphs" textLength="36" x="120" y="282.5244">_data</text><path d="M60,305.6006 L70,305.6006 C85,305.6006 85,276.0405 100,276.0405 L110,276.0405 " fill="none" style="stroke: #A80036; stroke-width: 1.0;"/><rect fill="#FEFECE" filter="url(#fjmndxi18exft)" height="39.1201" rx="12.5" ry="12.5" style="stroke: #A80036; stroke-width: 1.5;" width="80" x="110" y="315.6006"/><text fill="#000000" font-family="sans-serif" font-size="14" lengthAdjust="spacingAndGlyphs" textLength="60" x="120" y="341.6445">_includes</text><path d="M60,305.6006 L70,305.6006 C85,305.6006 85,335.1606 100,335.1606 L110,335.1606 " fill="none" style="stroke: #A80036; stroke-width: 1.0;"/><rect fill="#FEFECE" filter="url(#fjmndxi18exft)" height="39.1201" rx="12.5" ry="12.5" style="stroke: #A80036; stroke-width: 1.5;" width="73" x="110" y="374.7207"/><text fill="#000000" font-family="sans-serif" font-size="14" lengthAdjust="spacingAndGlyphs" textLength="53" x="120" y="400.7646">_layouts</text><path d="M60,305.6006 L70,305.6006 C85,305.6006 85,394.2808 100,394.2808 L110,394.2808 " fill="none" style="stroke: #A80036; stroke-width: 1.0;"/><rect fill="#FEFECE" filter="url(#fjmndxi18exft)" height="39.1201" rx="12.5" ry="12.5" style="stroke: #A80036; stroke-width: 1.5;" width="57" x="110" y="433.8408"/><text fill="#000000" font-family="sans-serif" font-size="14" lengthAdjust="spacingAndGlyphs" textLength="37" x="120" y="459.8848">_sass</text><path d="M60,305.6006 L70,305.6006 C85,305.6006 85,453.4009 100,453.4009 L110,453.4009 " fill="none" style="stroke: #A80036; stroke-width: 1.0;"/><rect fill="#FEFECE" filter="url(#fjmndxi18exft)" height="39.1201" rx="12.5" ry="12.5" style="stroke: #A80036; stroke-width: 1.5;" width="50" x="110" y="492.9609"/><text fill="#000000" font-family="sans-serif" font-size="14" lengthAdjust="spacingAndGlyphs" textLength="30" x="120" y="519.0049">_site</text><path d="M60,305.6006 L70,305.6006 C85,305.6006 85,512.521 100,512.521 L110,512.521 " fill="none" style="stroke: #A80036; stroke-width: 1.0;"/><rect fill="#FEFECE" filter="url(#fjmndxi18exft)" height="39.1201" rx="12.5" ry="12.5" style="stroke: #A80036; stroke-width: 1.5;" width="119" x="110" y="552.0811"/><text fill="#000000" font-family="sans-serif" font-size="14" lengthAdjust="spacingAndGlyphs" textLength="99" x="120" y="578.125">.jekyll-metadata</text><path d="M60,305.6006 L70,305.6006 C85,305.6006 85,571.6411 100,571.6411 L110,571.6411 " fill="none" style="stroke: #A80036; stroke-width: 1.0;"/><!--
@startmindmap
* Root
** index.html
** _config.yml
** _posts
** _drafts
** _data
** _includes
** _layouts
** _sass
** _site
** .jekyll-metadata
@endmindmap

PlantUML version 1.2019.09(Tue Aug 27 00:19:51 CST 2019)
(GPL source distribution)
Java Runtime: Java(TM) SE Runtime Environment
JVM: Java HotSpot(TM) Client VM
Java Version: 1.8.0_251-b08
Operating System: Windows 10
OS Version: 10.0
Default Encoding: GBK
Language: zh
Country: TW
--></g></svg>